<svg width="364" height="236" viewBox="0 0 364 236" fill="none" xmlns="http://www.w3.org/2000/svg">
<g filter="url(#filter0_di)">
<path d="M30 38C30 33.5817 33.5817 30 38 30H286C290.418 30 294 33.5817 294 38V158C294 162.418 290.418 166 286 166H38C33.5817 166 30 162.418 30 158V38Z" fill="white"/>
<path d="M160.288 115.824C165.407 118.58 165.628 122.615 165.628 122.615C165.628 122.615 161.172 124.223 156.054 121.467C150.935 118.711 147.079 112.826 147.079 112.826C147.079 112.826 155.103 113.281 160.288 115.824Z" fill="#0050C8"/>
<path d="M160.042 129.089C165.181 126.612 165.629 122.615 165.629 122.615C165.629 122.615 161.258 120.94 156.118 123.417C150.979 125.894 146.837 131.671 146.837 131.671C146.837 131.671 154.742 131.644 160.042 129.089Z" fill="#0050C8"/>
<path d="M146.736 116.054C150.636 119.217 149.976 122.597 149.976 122.597C149.976 122.597 145.789 123.354 141.888 120.192C137.988 117.029 135.977 111.335 135.977 111.335C135.977 111.335 142.929 113.027 146.736 116.054Z" fill="#0050C8"/>
<path d="M143.618 127.642C148.676 126.285 149.912 122.808 149.912 122.808C149.912 122.808 146.505 120.668 141.447 122.025C136.389 123.382 131.568 127.867 131.568 127.867C131.568 127.867 138.561 128.999 143.618 127.642Z" fill="#0050C8"/>
<path d="M134.935 112.919C137.431 116.218 135.982 119.077 135.982 119.077C135.982 119.077 132.224 118.907 129.728 115.608C127.232 112.309 126.839 107.096 126.839 107.096C126.839 107.096 132.439 109.619 134.935 112.919Z" fill="#0050C8"/>
<path d="M129.309 122.115C134.03 121.821 135.826 119.154 135.826 119.154C135.826 119.154 133.476 116.685 128.755 116.98C124.194 117.197 119.08 120.022 119.08 120.022C119.08 120.022 124.748 122.333 129.309 122.115Z" fill="#0050C8"/>
<path d="M125.451 106.323C126.221 109.914 123.797 111.982 123.797 111.982C123.797 111.982 120.629 110.808 119.859 107.217C119.089 103.627 120.982 98.9329 120.982 98.9329C120.982 98.9329 124.681 102.733 125.451 106.323Z" fill="#0050C8"/>
<path d="M116.933 112.59C121.184 113.783 123.795 111.984 123.795 111.984C123.795 111.984 122.756 109.243 118.665 107.973C114.507 106.916 108.755 107.887 108.755 107.887C108.755 107.887 112.775 111.533 116.933 112.59Z" fill="#0050C8"/>
<path d="M118.732 97.8543C118.512 101.562 115.461 103.033 115.461 103.033C115.461 103.033 112.749 101.278 112.968 97.5708C113.188 93.8633 116.377 89.8051 116.377 89.8051C116.377 89.8051 119.045 94.2819 118.732 97.8543Z" fill="#0050C8"/>
<path d="M108.59 102.383C112.319 104.368 115.557 103.167 115.557 103.167C115.557 103.167 115.414 100.175 111.619 98.4023C107.89 96.4175 102.059 96.3464 102.059 96.3464C102.059 96.3464 104.862 100.398 108.59 102.383Z" fill="#0050C8"/>
<path d="M115.313 88.8802C113.89 92.087 110.693 92.7275 110.693 92.7275C110.693 92.7275 108.944 90.5089 110.367 87.3022C111.789 84.0954 115.98 81.1754 115.98 81.1754C115.98 81.1754 116.735 85.6735 115.313 88.8802Z" fill="#0050C8"/>
<path d="M104.774 90.3581C107.378 92.8847 110.601 92.5917 110.601 92.5917C110.601 92.5917 111.408 90.0421 108.71 87.3803C106.106 84.8537 100.906 83.218 100.906 83.218C100.906 83.218 102.169 87.8314 104.774 90.3581Z" fill="#0050C8"/>
<path d="M117.729 65.7434C115.573 66.9621 113.515 66.1533 113.515 66.1533C113.515 66.1533 113.544 64.3383 115.793 63.2546C118.042 62.171 121.519 61.9356 121.519 61.9356C121.519 61.9356 120.044 64.4472 117.729 65.7434Z" fill="#0050C8"/>
<path d="M111.619 63.1066C111.87 65.3269 113.607 66.2904 113.607 66.2904C113.607 66.2904 115.187 65.1689 115.03 63.0837C114.846 60.651 112.911 58.1623 112.911 58.1623C112.911 58.1623 111.369 60.8864 111.619 63.1066Z" fill="#0050C8"/>
<path d="M115.715 72.1177C113.104 73.9161 110.564 73.3396 110.564 73.3396C110.564 73.3396 110.313 71.1194 112.83 69.1858C115.441 67.3874 119.883 66.6875 119.883 66.6875C119.883 66.6875 118.326 70.3192 115.715 72.1177Z" fill="#0050C8"/>
<path d="M107.369 69.6573C107.994 72.4177 110.56 73.3418 110.56 73.3418C110.56 73.3418 112.435 71.7179 111.557 68.8998C110.932 66.1393 107.887 63.2849 107.887 63.2849C107.887 63.2849 106.584 66.9742 107.369 69.6573Z" fill="#0050C8"/>
<path d="M114.176 80.4214C112.126 83.0303 109.223 83.1685 109.223 83.1685C109.223 83.1685 108.05 80.8527 110.1 78.2439C112.15 75.635 116.58 73.6802 116.58 73.6802C116.58 73.6802 116.226 77.8126 114.176 80.4214Z" fill="#0050C8"/>
<path d="M104.332 80.1248C106.2 82.826 109.222 83.1703 109.222 83.1703C109.222 83.1703 110.47 80.9485 108.762 78.1699C106.894 75.4687 102.564 73.2335 102.564 73.2335C102.564 73.2335 102.464 77.4235 104.332 80.1248Z" fill="#0050C8"/>
<path d="M118.462 57.8275C116.587 59.4514 117.133 61.1693 117.133 61.1693C117.133 61.1693 119.232 61.4181 120.853 59.7365C122.474 58.0549 123.254 55.1578 123.254 55.1578C123.254 55.1578 120.083 56.1459 118.462 57.8275Z" fill="#0050C8"/>
<path d="M163.716 115.864C158.598 118.62 158.377 122.655 158.377 122.655C158.377 122.655 162.833 124.263 167.951 121.507C173.069 118.751 176.926 112.866 176.926 112.866C176.926 112.866 168.741 113.244 163.716 115.864Z" fill="#0050C8"/>
<path d="M163.966 129.131C158.826 126.654 158.379 122.657 158.379 122.657C158.379 122.657 162.75 120.981 167.889 123.458C173.029 125.935 177.17 131.713 177.17 131.713C177.17 131.713 169.105 131.608 163.966 129.131Z" fill="#0050C8"/>
<path d="M177.264 116.093C173.363 119.256 174.184 122.713 174.184 122.713C174.184 122.713 178.372 123.47 182.272 120.308C186.173 117.145 188.183 111.452 188.183 111.452C188.183 111.452 181.071 113.066 177.264 116.093Z" fill="#0050C8"/>
<path d="M180.222 127.604C175.165 126.247 173.929 122.771 173.929 122.771C173.929 122.771 177.336 120.631 182.394 121.988C187.451 123.345 192.273 127.83 192.273 127.83C192.273 127.83 185.28 128.961 180.222 127.604Z" fill="#0050C8"/>
<path d="M189.071 112.957C186.575 116.256 188.024 119.116 188.024 119.116C188.024 119.116 191.782 118.946 194.278 115.647C196.774 112.347 197.167 107.135 197.167 107.135C197.167 107.135 191.567 109.658 189.071 112.957Z" fill="#0050C8"/>
<path d="M194.544 122.078C189.823 121.784 188.026 119.117 188.026 119.117C188.026 119.117 190.376 116.648 195.098 116.943C199.82 117.237 204.933 120.062 204.933 120.062C204.933 120.062 199.266 122.373 194.544 122.078Z" fill="#0050C8"/>
<path d="M198.393 106.285C197.623 109.876 200.046 111.944 200.046 111.944C200.046 111.944 203.214 110.77 203.985 107.179C204.755 103.589 202.862 98.8948 202.862 98.8948C202.862 98.8948 199.163 102.695 198.393 106.285Z" fill="#0050C8"/>
<path d="M207.067 112.627C202.816 113.82 200.205 112.021 200.205 112.021C200.205 112.021 201.244 109.28 205.335 108.01C209.586 106.818 215.339 107.789 215.339 107.789C215.339 107.789 211.065 111.492 207.067 112.627Z" fill="#0050C8"/>
<path d="M205.111 97.8175C205.33 101.525 208.382 102.996 208.382 102.996C208.382 102.996 211.094 101.241 210.875 97.534C210.655 93.8265 207.466 89.7683 207.466 89.7683C207.466 89.7683 204.798 94.2451 205.111 97.8175Z" fill="#0050C8"/>
<path d="M215.257 102.346C211.529 104.331 208.29 103.13 208.29 103.13C208.29 103.13 208.433 100.137 212.228 98.365C215.957 96.3802 221.788 96.3092 221.788 96.3092C221.788 96.3092 219.146 100.438 215.257 102.346Z" fill="#0050C8"/>
<path d="M208.531 88.8442C209.953 92.051 213.151 92.6916 213.151 92.6916C213.151 92.6916 214.9 90.4729 213.477 87.2662C212.054 84.0595 207.864 81.1394 207.864 81.1394C207.864 81.1394 207.108 85.6375 208.531 88.8442Z" fill="#0050C8"/>
<path d="M219.075 90.3237C216.471 92.8503 213.247 92.5573 213.247 92.5573C213.247 92.5573 212.441 90.0077 215.139 87.346C217.743 84.8193 222.943 83.1836 222.943 83.1836C222.943 83.1836 221.679 87.797 219.075 90.3237Z" fill="#0050C8"/>
<path d="M206.114 65.7059C208.363 66.7896 210.328 66.1159 210.328 66.1159C210.328 66.1159 210.299 64.3009 208.05 63.2172C205.801 62.1335 202.324 61.8981 202.324 61.8981C202.324 61.8981 203.959 64.4872 206.114 65.7059Z" fill="#0050C8"/>
<path d="M212.222 63.0678C212.065 65.153 210.328 66.1166 210.328 66.1166C210.328 66.1166 208.748 64.995 208.905 62.9098C208.995 60.6122 210.931 58.1235 210.931 58.1235C210.931 58.1235 212.473 60.8476 212.222 63.0678Z" fill="#0050C8"/>
<path d="M208.133 72.0826C210.743 73.8811 213.284 73.3045 213.284 73.3045C213.284 73.3045 213.534 71.0843 211.017 69.1508C208.406 67.3523 203.965 66.6524 203.965 66.6524C203.965 66.6524 205.522 70.2841 208.133 72.0826Z" fill="#0050C8"/>
<path d="M216.633 69.6964C216.009 72.4569 213.442 73.381 213.442 73.381C213.442 73.381 211.567 71.7571 212.446 68.9389C213.07 66.1785 216.115 63.324 216.115 63.324C216.115 63.324 217.258 66.936 216.633 69.6964Z" fill="#0050C8"/>
<path d="M209.672 80.3864C211.723 82.9953 214.625 83.1335 214.625 83.1335C214.625 83.1335 215.798 80.8177 213.748 78.2089C211.791 75.465 207.361 73.5101 207.361 73.5101C207.361 73.5101 207.622 77.7776 209.672 80.3864Z" fill="#0050C8"/>
<path d="M219.511 80.0865C217.643 82.7877 214.621 83.1321 214.621 83.1321C214.621 83.1321 213.374 80.9103 215.242 78.209C217.11 75.5078 221.44 73.2726 221.44 73.2726C221.44 73.2726 221.38 77.3853 219.511 80.0865Z" fill="#0050C8"/>
<path d="M205.544 57.8674C207.165 59.549 206.873 61.2092 206.873 61.2092C206.873 61.2092 204.613 61.3806 202.992 59.699C201.371 58.0174 200.591 55.1203 200.591 55.1203C200.591 55.1203 203.762 56.1084 205.544 57.8674Z" fill="#0050C8"/>
<path d="M138.98 87.9956V75.3056H144.524C145.856 75.3056 146.888 75.5996 147.62 76.1876C148.352 76.7636 148.718 77.5676 148.718 78.5996C148.718 79.2836 148.544 79.8716 148.196 80.3636C147.848 80.8556 147.368 81.2156 146.756 81.4436C147.476 81.6476 148.034 82.0076 148.43 82.5236C148.838 83.0276 149.042 83.6696 149.042 84.4496C149.042 85.5776 148.658 86.4536 147.89 87.0776C147.134 87.6896 146.078 87.9956 144.722 87.9956H138.98ZM141.194 80.6876H144.128C145.7 80.6876 146.486 80.0816 146.486 78.8696C146.486 77.6576 145.7 77.0516 144.128 77.0516H141.194V80.6876ZM141.194 86.2496H144.434C146.018 86.2496 146.81 85.6136 146.81 84.3416C146.81 83.0696 146.018 82.4336 144.434 82.4336H141.194V86.2496ZM150.818 87.9956V85.4936H153.338V87.9956H150.818ZM155.697 87.9956V75.3056H164.139V77.1416H157.911V80.6336H163.743V82.4696H157.911V86.1596H164.139V87.9956H155.697ZM166.221 87.9956V79.1936H168.417V80.5616C168.717 80.0576 169.119 79.6736 169.623 79.4096C170.139 79.1456 170.715 79.0136 171.351 79.0136C173.427 79.0136 174.465 80.2196 174.465 82.6316V87.9956H172.215V82.7396C172.215 82.0556 172.083 81.5576 171.819 81.2456C171.567 80.9336 171.171 80.7776 170.631 80.7776C169.971 80.7776 169.443 80.9876 169.047 81.4076C168.663 81.8156 168.471 82.3616 168.471 83.0456V87.9956H166.221ZM180.855 91.4156C180.039 91.4156 179.271 91.3196 178.551 91.1276C177.843 90.9476 177.219 90.6656 176.679 90.2816L177.327 88.7156C177.831 89.0516 178.371 89.2976 178.947 89.4536C179.523 89.6216 180.099 89.7056 180.675 89.7056C182.283 89.7056 183.087 88.9316 183.087 87.3836V86.1776C182.835 86.6696 182.445 87.0596 181.917 87.3476C181.401 87.6356 180.825 87.7796 180.189 87.7796C179.397 87.7796 178.707 87.5996 178.119 87.2396C177.531 86.8676 177.075 86.3516 176.751 85.6916C176.427 85.0316 176.265 84.2636 176.265 83.3876C176.265 82.5116 176.427 81.7496 176.751 81.1016C177.075 80.4416 177.531 79.9316 178.119 79.5716C178.707 79.1996 179.397 79.0136 180.189 79.0136C180.849 79.0136 181.437 79.1636 181.953 79.4636C182.469 79.7516 182.847 80.1416 183.087 80.6336V79.1936H185.283V87.1136C185.283 88.5416 184.905 89.6156 184.149 90.3356C183.393 91.0556 182.295 91.4156 180.855 91.4156ZM180.801 86.0696C181.497 86.0696 182.049 85.8296 182.457 85.3496C182.865 84.8696 183.069 84.2156 183.069 83.3876C183.069 82.5596 182.865 81.9116 182.457 81.4436C182.049 80.9636 181.497 80.7236 180.801 80.7236C180.105 80.7236 179.553 80.9636 179.145 81.4436C178.737 81.9116 178.533 82.5596 178.533 83.3876C178.533 84.2156 178.737 84.8696 179.145 85.3496C179.553 85.8296 180.105 86.0696 180.801 86.0696Z" fill="#0050C8"/>
</g>
<defs>
<filter id="filter0_di" x="0" y="0" width="364" height="236" filterUnits="userSpaceOnUse" color-interpolation-filters="sRGB">
<feFlood flood-opacity="0" result="BackgroundImageFix"/>
<feColorMatrix in="SourceAlpha" type="matrix" values="0 0 0 0 0 0 0 0 0 0 0 0 0 0 0 0 0 0 127 0"/>
<feOffset dx="20" dy="20"/>
<feGaussianBlur stdDeviation="25"/>
<feColorMatrix type="matrix" values="0 0 0 0 0 0 0 0 0 0.313726 0 0 0 0 0.784314 0 0 0 0.05 0"/>
<feBlend mode="normal" in2="BackgroundImageFix" result="effect1_dropShadow"/>
<feBlend mode="normal" in="SourceGraphic" in2="effect1_dropShadow" result="shape"/>
<feColorMatrix in="SourceAlpha" type="matrix" values="0 0 0 0 0 0 0 0 0 0 0 0 0 0 0 0 0 0 127 0" result="hardAlpha"/>
<feOffset dy="3"/>
<feComposite in2="hardAlpha" operator="arithmetic" k2="-1" k3="1"/>
<feColorMatrix type="matrix" values="0 0 0 0 0 0 0 0 0 0.313726 0 0 0 0 0.784314 0 0 0 1 0"/>
<feBlend mode="normal" in2="shape" result="effect2_innerShadow"/>
</filter>
</defs>
</svg>
