<svg width="51" height="50" viewBox="0 0 51 50" fill="none" xmlns="http://www.w3.org/2000/svg">
<path fill-rule="evenodd" clip-rule="evenodd" d="M31.2065 35.183C34.4633 32.7487 38.7546 30.5988 44.0803 28.7335C44.0507 28.6229 42.3686 22.3452 39.034 9.9004L39.0339 9.90041C38.9127 9.44795 38.4476 9.17945 37.9952 9.30068C37.9883 9.30254 37.9814 9.30447 37.9745 9.3065C33.3703 10.666 29.0264 12.9969 24.9427 16.2994C24.9623 16.3723 26.6078 22.5135 29.8794 34.7232L29.8793 34.7232C30.0006 35.1757 30.4657 35.4442 30.9182 35.3229C31.0223 35.2951 31.1201 35.2476 31.2065 35.183Z" fill="#0050C8"/>
<path opacity="0.3" fill-rule="evenodd" clip-rule="evenodd" d="M25.6833 36.663C21.6457 36.1831 16.8544 36.467 11.3095 37.5144C11.2799 37.4038 9.5978 31.1261 6.26322 18.6813L6.26326 18.6813C6.14202 18.2288 6.41053 17.7638 6.86298 17.6425C6.86989 17.6407 6.87683 17.6389 6.88379 17.6372C11.5509 16.5125 16.4783 16.3592 21.6661 17.1774C21.6856 17.2503 23.3312 23.3915 26.6027 35.6012L26.6027 35.6011C26.724 36.0536 26.4555 36.5187 26.003 36.64C25.8989 36.6679 25.7904 36.6757 25.6833 36.663Z" fill="#0050C8"/>
</svg>
