<svg width="47" height="40" viewBox="0 0 47 40" fill="none" xmlns="http://www.w3.org/2000/svg">
<path d="M11.5198 33.7196C8.02643 33.7196 5.35977 32.453 3.51977 29.9196C1.67977 27.3596 0.759766 23.7463 0.759766 19.0796C0.759766 14.3863 1.67977 10.813 3.51977 8.35965C5.35977 5.87965 8.02643 4.63965 11.5198 4.63965C15.0131 4.63965 17.6798 5.87965 19.5198 8.35965C21.3598 10.813 22.2798 14.373 22.2798 19.0396C22.2798 23.733 21.3598 27.3596 19.5198 29.9196C17.6798 32.453 15.0131 33.7196 11.5198 33.7196ZM11.5198 27.8796C12.7998 27.8796 13.7464 27.1863 14.3598 25.7996C14.9998 24.3863 15.3198 22.133 15.3198 19.0396C15.3198 15.973 14.9998 13.7863 14.3598 12.4796C13.7464 11.1463 12.7998 10.4796 11.5198 10.4796C10.2398 10.4796 9.27977 11.1463 8.63977 12.4796C8.02643 13.7863 7.71977 15.973 7.71977 19.0396C7.71977 22.133 8.02643 24.3863 8.63977 25.7996C9.27977 27.1863 10.2398 27.8796 11.5198 27.8796Z" fill="#E7E7ED"/>
<path d="M36.6241 33.7196C32.9175 33.7196 30.0508 32.4796 28.0241 29.9996C26.0241 27.5196 25.0241 23.9996 25.0241 19.4396C25.0241 16.3463 25.5308 13.693 26.5441 11.4796C27.5841 9.26632 29.0775 7.57298 31.0241 6.39965C32.9708 5.22631 35.2908 4.63965 37.9841 4.63965C39.5308 4.63965 41.0508 4.89298 42.5441 5.39965C44.0375 5.87965 45.3575 6.58631 46.5041 7.51965L44.2641 12.9196C43.2775 12.173 42.2375 11.613 41.1441 11.2396C40.0775 10.8663 38.9975 10.6796 37.9041 10.6796C33.9041 10.6796 31.9041 13.1596 31.9041 18.1196V18.3996C32.4641 17.253 33.2908 16.3596 34.3841 15.7196C35.5041 15.0796 36.7708 14.7596 38.1841 14.7596C39.7308 14.7596 41.1175 15.1596 42.3441 15.9596C43.5975 16.733 44.5841 17.813 45.3041 19.1996C46.0241 20.5863 46.3841 22.1596 46.3841 23.9196C46.3841 25.8396 45.9708 27.533 45.1441 28.9996C44.3175 30.4663 43.1708 31.6263 41.7041 32.4796C40.2375 33.3063 38.5441 33.7196 36.6241 33.7196ZM36.2241 28.1196C37.2641 28.1196 38.0908 27.773 38.7041 27.0796C39.3441 26.3596 39.6641 25.413 39.6641 24.2396C39.6641 23.0663 39.3441 22.1196 38.7041 21.3996C38.0908 20.6796 37.2641 20.3196 36.2241 20.3196C35.2108 20.3196 34.3841 20.6796 33.7441 21.3996C33.1041 22.1196 32.7841 23.0663 32.7841 24.2396C32.7841 25.413 33.1041 26.3596 33.7441 27.0796C34.3841 27.773 35.2108 28.1196 36.2241 28.1196Z" fill="#E7E7ED"/>
</svg>
