<svg width="168" height="142" viewBox="0 0 168 142" fill="none" xmlns="http://www.w3.org/2000/svg">
<rect width="168" height="142" rx="8" fill="white"/>
<rect x="56" y="24" width="56" height="56" rx="28" fill="white"/>
<path d="M73.6519 56.4999C73.6519 56.4999 91.8935 38.2032 93.0735 37.0249C94.3819 35.7149 98.6035 34.7282 100.704 34.3049C100.838 34.2777 100.978 34.2843 101.109 34.324C101.241 34.3637 101.36 34.4354 101.458 34.5325C101.555 34.6297 101.626 34.7494 101.666 34.881C101.706 35.0125 101.712 35.1519 101.685 35.2866C101.262 37.3866 100.275 41.6066 98.9652 42.9166L79.5185 62.3616L73.6519 56.4999Z" fill="#B3CDFF" stroke="black" stroke-linecap="round" stroke-linejoin="round"/>
<path d="M76.002 54.1237L81.8786 60.0053" stroke="black" stroke-linecap="round" stroke-linejoin="round"/>
<path d="M88.3586 53.525C88.4346 56.0942 88.2374 58.6642 87.7703 61.1917C87.213 62.5085 86.4124 63.7084 85.4103 64.7284L81.2153 68.9167C81.0929 69.0397 80.9353 69.1215 80.7642 69.1506C80.5932 69.1797 80.4174 69.1547 80.2612 69.0791C80.1051 69.0036 79.9764 68.8811 79.8932 68.7289C79.81 68.5767 79.7763 68.4023 79.7969 68.23L80.6119 61.27" stroke="black" stroke-linecap="round" stroke-linejoin="round"/>
<path d="M82.4647 47.6318C79.8835 47.5364 77.2995 47.7157 74.7563 48.1668C73.4528 48.7429 72.2699 49.56 71.2697 50.5751L67.0863 54.7568C66.9634 54.8795 66.8819 55.0375 66.8533 55.2088C66.8246 55.3801 66.8501 55.5561 66.9263 55.7121C67.0025 55.8682 67.1255 55.9965 67.2782 56.0793C67.4309 56.162 67.6057 56.1949 67.778 56.1735L74.778 55.3168" stroke="black" stroke-linecap="round" stroke-linejoin="round"/>
<path d="M75.9838 62.3617C77.1638 63.54 76.6721 65.21 75.3955 66.4884C74.2005 67.6817 69.6705 69.0434 67.3521 69.68C67.2117 69.7168 67.0641 69.7163 66.924 69.6785C66.7839 69.6407 66.656 69.567 66.5531 69.4646C66.4503 69.3622 66.3759 69.2347 66.3374 69.0948C66.299 68.9548 66.2977 68.8073 66.3338 68.6667C66.9638 66.3417 68.3121 61.7983 69.5005 60.6017C70.7955 59.3083 72.4488 58.835 73.6271 60.0134" stroke="black" stroke-linecap="round" stroke-linejoin="round"/>
<path d="M47.892 112V100.72H49.204V112H47.892ZM51.8098 112V104.224H53.0738V105.552C53.3298 105.061 53.6924 104.693 54.1618 104.448C54.6311 104.203 55.1591 104.08 55.7458 104.08C57.5911 104.08 58.5138 105.104 58.5138 107.152V112H57.2178V107.232C57.2178 106.507 57.0738 105.979 56.7858 105.648C56.5084 105.307 56.0604 105.136 55.4418 105.136C54.7271 105.136 54.1564 105.36 53.7298 105.808C53.3138 106.245 53.1058 106.832 53.1058 107.568V112H51.8098ZM60.9035 112V104.224H62.1675V105.552C62.4235 105.061 62.7862 104.693 63.2555 104.448C63.7248 104.203 64.2528 104.08 64.8395 104.08C66.6848 104.08 67.6075 105.104 67.6075 107.152V112H66.3115V107.232C66.3115 106.507 66.1675 105.979 65.8795 105.648C65.6022 105.307 65.1542 105.136 64.5355 105.136C63.8208 105.136 63.2502 105.36 62.8235 105.808C62.4075 106.245 62.1995 106.832 62.1995 107.568V112H60.9035ZM73.2293 112.144C72.4719 112.144 71.8159 111.979 71.2613 111.648C70.7066 111.317 70.2746 110.853 69.9653 110.256C69.6666 109.648 69.5173 108.933 69.5173 108.112C69.5173 107.291 69.6666 106.581 69.9653 105.984C70.2746 105.376 70.7066 104.907 71.2613 104.576C71.8159 104.245 72.4719 104.08 73.2293 104.08C73.9759 104.08 74.6266 104.245 75.1813 104.576C75.7466 104.907 76.1786 105.376 76.4773 105.984C76.7866 106.581 76.9413 107.291 76.9413 108.112C76.9413 108.933 76.7866 109.648 76.4773 110.256C76.1786 110.853 75.7466 111.317 75.1813 111.648C74.6266 111.979 73.9759 112.144 73.2293 112.144ZM73.2293 111.104C73.9546 111.104 74.5359 110.848 74.9733 110.336C75.4106 109.813 75.6293 109.072 75.6293 108.112C75.6293 107.141 75.4106 106.4 74.9733 105.888C74.5359 105.376 73.9546 105.12 73.2293 105.12C72.4933 105.12 71.9066 105.376 71.4693 105.888C71.0426 106.4 70.8293 107.141 70.8293 108.112C70.8293 109.072 71.0426 109.813 71.4693 110.336C71.9066 110.848 72.4933 111.104 73.2293 111.104ZM81.0665 112L77.7225 104.224H79.1305L81.7065 110.528L84.3145 104.224H85.6425L82.2825 112H81.0665ZM89.3046 112.144C88.7713 112.144 88.2913 112.043 87.8646 111.84C87.4486 111.627 87.118 111.339 86.8726 110.976C86.6273 110.613 86.5046 110.208 86.5046 109.76C86.5046 109.195 86.6486 108.747 86.9366 108.416C87.2353 108.085 87.7206 107.851 88.3926 107.712C89.0753 107.563 90.0033 107.488 91.1766 107.488H91.6886V106.992C91.6886 106.331 91.55 105.856 91.2726 105.568C91.006 105.269 90.574 105.12 89.9766 105.12C89.5073 105.12 89.054 105.189 88.6166 105.328C88.1793 105.456 87.7313 105.669 87.2726 105.968L86.8246 105.024C87.23 104.736 87.7206 104.507 88.2966 104.336C88.8833 104.165 89.4433 104.08 89.9766 104.08C90.9793 104.08 91.7206 104.325 92.2006 104.816C92.6913 105.307 92.9366 106.069 92.9366 107.104V112H91.7206V110.656C91.518 111.115 91.2033 111.477 90.7766 111.744C90.3606 112.011 89.87 112.144 89.3046 112.144ZM89.5126 111.168C90.1526 111.168 90.6753 110.949 91.0806 110.512C91.486 110.064 91.6886 109.499 91.6886 108.816V108.336H91.1926C90.3286 108.336 89.646 108.379 89.1446 108.464C88.654 108.539 88.3073 108.677 88.1046 108.88C87.9126 109.072 87.8166 109.339 87.8166 109.68C87.8166 110.117 87.966 110.475 88.2646 110.752C88.574 111.029 88.99 111.168 89.5126 111.168ZM98.461 112.144C97.5437 112.144 96.8557 111.904 96.397 111.424C95.9383 110.933 95.709 110.229 95.709 109.312V105.232H94.189V104.224H95.709V101.84H97.005V104.224H99.469V105.232H97.005V109.184C97.005 109.792 97.133 110.256 97.389 110.576C97.645 110.885 98.061 111.04 98.637 111.04C98.8077 111.04 98.9783 111.019 99.149 110.976C99.3197 110.933 99.4743 110.891 99.613 110.848L99.837 111.84C99.6983 111.915 99.4957 111.984 99.229 112.048C98.9623 112.112 98.7063 112.144 98.461 112.144ZM100.775 102.288V100.832H102.375V102.288H100.775ZM100.935 112V104.224H102.231V112H100.935ZM107.886 112.144C107.128 112.144 106.472 111.979 105.918 111.648C105.363 111.317 104.931 110.853 104.622 110.256C104.323 109.648 104.174 108.933 104.174 108.112C104.174 107.291 104.323 106.581 104.622 105.984C104.931 105.376 105.363 104.907 105.918 104.576C106.472 104.245 107.128 104.08 107.886 104.08C108.632 104.08 109.283 104.245 109.838 104.576C110.403 104.907 110.835 105.376 111.134 105.984C111.443 106.581 111.598 107.291 111.598 108.112C111.598 108.933 111.443 109.648 111.134 110.256C110.835 110.853 110.403 111.317 109.838 111.648C109.283 111.979 108.632 112.144 107.886 112.144ZM107.886 111.104C108.611 111.104 109.192 110.848 109.63 110.336C110.067 109.813 110.286 109.072 110.286 108.112C110.286 107.141 110.067 106.4 109.63 105.888C109.192 105.376 108.611 105.12 107.886 105.12C107.15 105.12 106.563 105.376 106.126 105.888C105.699 106.4 105.486 107.141 105.486 108.112C105.486 109.072 105.699 109.813 106.126 110.336C106.563 110.848 107.15 111.104 107.886 111.104ZM113.544 112V104.224H114.808V105.552C115.064 105.061 115.427 104.693 115.896 104.448C116.365 104.203 116.893 104.08 117.48 104.08C119.325 104.08 120.248 105.104 120.248 107.152V112H118.952V107.232C118.952 106.507 118.808 105.979 118.52 105.648C118.243 105.307 117.795 105.136 117.176 105.136C116.461 105.136 115.891 105.36 115.464 105.808C115.048 106.245 114.84 106.832 114.84 107.568V112H113.544Z" fill="#1D2733"/>
</svg>
