<svg width="47" height="40" viewBox="0 0 47 40" fill="none" xmlns="http://www.w3.org/2000/svg">
<path d="M11.5198 33.7196C8.02643 33.7196 5.35977 32.453 3.51977 29.9196C1.67977 27.3596 0.759766 23.7463 0.759766 19.0796C0.759766 14.3863 1.67977 10.813 3.51977 8.35965C5.35977 5.87965 8.02643 4.63965 11.5198 4.63965C15.0131 4.63965 17.6798 5.87965 19.5198 8.35965C21.3598 10.813 22.2798 14.373 22.2798 19.0396C22.2798 23.733 21.3598 27.3596 19.5198 29.9196C17.6798 32.453 15.0131 33.7196 11.5198 33.7196ZM11.5198 27.8796C12.7998 27.8796 13.7464 27.1863 14.3598 25.7996C14.9998 24.3863 15.3198 22.133 15.3198 19.0396C15.3198 15.973 14.9998 13.7863 14.3598 12.4796C13.7464 11.1463 12.7998 10.4796 11.5198 10.4796C10.2398 10.4796 9.27977 11.1463 8.63977 12.4796C8.02643 13.7863 7.71977 15.973 7.71977 19.0396C7.71977 22.133 8.02643 24.3863 8.63977 25.7996C9.27977 27.1863 10.2398 27.8796 11.5198 27.8796Z" fill="#E7E7ED"/>
<path d="M36.1841 33.2796V28.5596H24.7441V23.3996L37.3441 5.07965H43.2641V22.9996H46.9441V28.5596H43.2641V33.2796H36.1841ZM36.1841 22.9996V15.4396L31.1041 22.9996H36.1841Z" fill="#E7E7ED"/>
</svg>
