<svg width="47" height="40" viewBox="0 0 47 40" fill="none" xmlns="http://www.w3.org/2000/svg">
<path d="M11.5198 33.7196C8.02643 33.7196 5.35977 32.453 3.51977 29.9196C1.67977 27.3596 0.759766 23.7463 0.759766 19.0796C0.759766 14.3863 1.67977 10.813 3.51977 8.35965C5.35977 5.87965 8.02643 4.63965 11.5198 4.63965C15.0131 4.63965 17.6798 5.87965 19.5198 8.35965C21.3598 10.813 22.2798 14.373 22.2798 19.0396C22.2798 23.733 21.3598 27.3596 19.5198 29.9196C17.6798 32.453 15.0131 33.7196 11.5198 33.7196ZM11.5198 27.8796C12.7998 27.8796 13.7464 27.1863 14.3598 25.7996C14.9998 24.3863 15.3198 22.133 15.3198 19.0396C15.3198 15.973 14.9998 13.7863 14.3598 12.4796C13.7464 11.1463 12.7998 10.4796 11.5198 10.4796C10.2398 10.4796 9.27977 11.1463 8.63977 12.4796C8.02643 13.7863 7.71977 15.973 7.71977 19.0396C7.71977 22.133 8.02643 24.3863 8.63977 25.7996C9.27977 27.1863 10.2398 27.8796 11.5198 27.8796Z" fill="#E7E7ED"/>
<path d="M26.2641 33.2796V27.8796L34.7441 18.9996C35.7841 17.8796 36.5175 16.9196 36.9441 16.1196C37.3975 15.3196 37.6241 14.5196 37.6241 13.7196C37.6241 11.693 36.3308 10.6796 33.7441 10.6796C32.6775 10.6796 31.5841 10.8796 30.4641 11.2796C29.3708 11.6796 28.2775 12.293 27.1841 13.1196L24.9041 7.75965C26.1308 6.79965 27.6108 6.03965 29.3441 5.47965C31.1041 4.91965 32.9175 4.63965 34.7841 4.63965C38.0375 4.63965 40.5175 5.34631 42.2241 6.75965C43.9575 8.17298 44.8241 10.213 44.8241 12.8796C44.8241 14.5863 44.4375 16.2263 43.6641 17.7996C42.8908 19.3463 41.5975 20.9996 39.7841 22.7596L35.2241 27.3196H45.8641V33.2796H26.2641Z" fill="#E7E7ED"/>
</svg>
