<svg width="46" height="40" viewBox="0 0 46 40" fill="none" xmlns="http://www.w3.org/2000/svg">
<path d="M11.5198 33.7196C8.02643 33.7196 5.35977 32.453 3.51977 29.9196C1.67977 27.3596 0.759766 23.7463 0.759766 19.0796C0.759766 14.3863 1.67977 10.813 3.51977 8.35965C5.35977 5.87965 8.02643 4.63965 11.5198 4.63965C15.0131 4.63965 17.6798 5.87965 19.5198 8.35965C21.3598 10.813 22.2798 14.373 22.2798 19.0396C22.2798 23.733 21.3598 27.3596 19.5198 29.9196C17.6798 32.453 15.0131 33.7196 11.5198 33.7196ZM11.5198 27.8796C12.7998 27.8796 13.7464 27.1863 14.3598 25.7996C14.9998 24.3863 15.3198 22.133 15.3198 19.0396C15.3198 15.973 14.9998 13.7863 14.3598 12.4796C13.7464 11.1463 12.7998 10.4796 11.5198 10.4796C10.2398 10.4796 9.27977 11.1463 8.63977 12.4796C8.02643 13.7863 7.71977 15.973 7.71977 19.0396C7.71977 22.133 8.02643 24.3863 8.63977 25.7996C9.27977 27.1863 10.2398 27.8796 11.5198 27.8796Z" fill="#E7E7ED"/>
<path d="M34.6641 33.7196C32.6641 33.7196 30.7441 33.453 28.9041 32.9196C27.0641 32.3596 25.5975 31.6263 24.5041 30.7196L26.7441 25.2396C29.0641 26.8663 31.6108 27.6796 34.3841 27.6796C37.2641 27.6796 38.7041 26.693 38.7041 24.7196C38.7041 22.9063 37.4241 21.9996 34.8641 21.9996H29.9441V16.1596H34.1441C35.2908 16.1596 36.1841 15.9196 36.8241 15.4396C37.4908 14.9596 37.8241 14.2663 37.8241 13.3596C37.8241 11.573 36.5841 10.6796 34.1041 10.6796C31.5708 10.6796 29.2775 11.493 27.2241 13.1196L24.9441 7.75965C26.1441 6.77298 27.6108 6.01298 29.3441 5.47965C31.1041 4.91965 32.9308 4.63965 34.8241 4.63965C37.9708 4.63965 40.4241 5.33298 42.1841 6.71965C43.9441 8.07965 44.8241 9.97298 44.8241 12.3996C44.8241 13.8396 44.4641 15.1063 43.7441 16.1996C43.0241 17.293 42.0241 18.093 40.7441 18.5996C42.3175 19.053 43.5308 19.8796 44.3841 21.0796C45.2641 22.2796 45.7041 23.733 45.7041 25.4396C45.7041 27.9996 44.7175 30.0263 42.7441 31.5196C40.7975 32.9863 38.1041 33.7196 34.6641 33.7196Z" fill="#E7E7ED"/>
</svg>
