<svg width="168" height="142" viewBox="0 0 168 142" fill="none" xmlns="http://www.w3.org/2000/svg">
<rect width="168" height="142" rx="8" fill="white"/>
<rect x="56" y="24" width="56" height="56" rx="28" fill="white"/>
<path d="M97.3329 34.0001L97.8796 35.7934C97.971 36.0896 98.1712 36.3402 98.4399 36.4948C98.7086 36.6494 99.0259 36.6966 99.3279 36.6268L101.146 36.2051C101.491 36.1274 101.851 36.1621 102.175 36.3042C102.498 36.4462 102.768 36.6882 102.944 36.9946C103.12 37.301 103.193 37.6557 103.153 38.0068C103.112 38.3578 102.96 38.6866 102.72 38.9451L101.446 40.3334C101.234 40.5616 101.116 40.8618 101.116 41.1734C101.116 41.4851 101.234 41.7852 101.446 42.0134L102.718 43.3868C102.958 43.6454 103.109 43.974 103.149 44.3247C103.189 44.6753 103.116 45.0295 102.94 45.3355C102.764 45.6415 102.495 45.8832 102.172 46.0253C101.849 46.1674 101.489 46.2023 101.145 46.1251L99.3329 45.6984C99.0309 45.6286 98.7136 45.6758 98.4449 45.8304C98.1762 45.985 97.976 46.2356 97.8846 46.5318L97.3329 48.3334C97.2315 48.6717 97.0237 48.9682 96.7405 49.179C96.4572 49.3898 96.1135 49.5036 95.7604 49.5036C95.4073 49.5036 95.0636 49.3898 94.7803 49.179C94.4971 48.9682 94.2893 48.6717 94.1879 48.3334L93.6412 46.5401C93.5498 46.2439 93.3496 45.9933 93.0809 45.8387C92.8122 45.6841 92.4949 45.637 92.1929 45.7068L90.3746 46.1284C90.0302 46.2057 89.6702 46.1707 89.3471 46.0286C89.0241 45.8866 88.755 45.6448 88.5792 45.3388C88.4033 45.0329 88.3301 44.6786 88.37 44.328C88.41 43.9774 88.5611 43.6487 88.8012 43.3901L90.0729 42.0168C90.2852 41.7886 90.4032 41.4884 90.4032 41.1768C90.4032 40.8651 90.2852 40.565 90.0729 40.3368L88.8012 38.9651C88.5603 38.7066 88.4086 38.3778 88.3682 38.0268C88.3279 37.6757 88.401 37.321 88.577 37.0146C88.7529 36.7082 89.0224 36.4662 89.3459 36.3242C89.6694 36.1821 90.0299 36.1474 90.3746 36.2251L92.1929 36.6468C92.4949 36.7166 92.8122 36.6694 93.0809 36.5148C93.3496 36.3602 93.5498 36.1096 93.6412 35.8134L94.1862 34.0001C94.2872 33.6612 94.4949 33.364 94.7783 33.1527C95.0618 32.9413 95.406 32.8271 95.7596 32.8271C96.1132 32.8271 96.4573 32.9413 96.7408 33.1527C97.0243 33.364 97.2319 33.6612 97.3329 34.0001Z" fill="#B3CDFF" stroke="black" stroke-linecap="round" stroke-linejoin="round"/>
<path d="M95.7602 43.5637C97.083 43.5637 98.1552 42.4914 98.1552 41.1687C98.1552 39.846 97.083 38.7737 95.7602 38.7737C94.4375 38.7737 93.3652 39.846 93.3652 41.1687C93.3652 42.4914 94.4375 43.5637 95.7602 43.5637Z" stroke="black" stroke-linecap="round" stroke-linejoin="round"/>
<path d="M75.7184 48.0434C75.9216 48.2707 76.1705 48.4525 76.4488 48.5769C76.7271 48.7014 77.0285 48.7657 77.3334 48.7657C77.6382 48.7657 77.9396 48.7014 78.2179 48.5769C78.4962 48.4525 78.7451 48.2707 78.9484 48.0434L80 46.8868C80.3012 46.5529 80.6983 46.3205 81.1369 46.2215C81.5754 46.1225 82.0339 46.1617 82.4493 46.3338C82.8646 46.5059 83.2165 46.8023 83.4566 47.1825C83.6967 47.5626 83.8132 48.0078 83.79 48.4568L83.71 50.0134C83.6947 50.3176 83.7434 50.6215 83.8528 50.9056C83.9622 51.1898 84.13 51.4479 84.3453 51.6632C84.5606 51.8785 84.8187 52.0463 85.1028 52.1557C85.387 52.2651 85.6909 52.3137 85.995 52.2984L87.5517 52.2184C88.0007 52.1953 88.4458 52.3118 88.826 52.5518C89.2061 52.7919 89.5026 53.1438 89.6747 53.5592C89.8467 53.9746 89.8859 54.433 89.7869 54.8716C89.6879 55.3101 89.4555 55.7073 89.1217 56.0084L87.965 57.0534C87.7378 57.2567 87.556 57.5056 87.4315 57.7839C87.3071 58.0622 87.2427 58.3636 87.2427 58.6684C87.2427 58.9733 87.3071 59.2747 87.4315 59.553C87.556 59.8313 87.7378 60.0802 87.965 60.2834L89.1217 61.3284C89.4555 61.6296 89.6879 62.0267 89.7869 62.4653C89.8859 62.9039 89.8467 63.3623 89.6747 63.7777C89.5026 64.1931 89.2061 64.545 88.826 64.785C88.4458 65.0251 88.0007 65.1416 87.5517 65.1184L85.995 65.0384C85.6909 65.0231 85.387 65.0718 85.1028 65.1812C84.8187 65.2906 84.5606 65.4584 84.3453 65.6737C84.13 65.889 83.9622 66.1471 83.8528 66.4312C83.7434 66.7154 83.6947 67.0193 83.71 67.3234L83.79 68.8801C83.8132 69.3291 83.6967 69.7743 83.4566 70.1544C83.2165 70.5345 82.8646 70.831 82.4493 71.0031C82.0339 71.1751 81.5754 71.2144 81.1369 71.1153C80.6983 71.0163 80.3012 70.7839 80 70.4501L78.955 69.2934C78.7518 69.0662 78.5029 68.8844 78.2246 68.7599C77.9463 68.6355 77.6449 68.5711 77.34 68.5711C77.0352 68.5711 76.7337 68.6355 76.4554 68.7599C76.1772 68.8844 75.9283 69.0662 75.725 69.2934L74.6667 70.4501C74.3655 70.7839 73.9684 71.0163 73.5298 71.1153C73.0913 71.2144 72.6328 71.1751 72.2174 71.0031C71.8021 70.831 71.4502 70.5345 71.2101 70.1544C70.97 69.7743 70.8536 69.3291 70.8767 68.8801L70.9567 67.3234C70.972 67.0193 70.9234 66.7154 70.8139 66.4312C70.7045 66.1471 70.5367 65.889 70.3214 65.6737C70.1061 65.4584 69.8481 65.2906 69.5639 65.1812C69.2797 65.0718 68.9758 65.0231 68.6717 65.0384L67.115 65.1184C66.6677 65.1388 66.225 65.0208 65.8472 64.7804C65.4694 64.5399 65.175 64.1889 65.0041 63.775C64.8331 63.3611 64.794 62.9046 64.892 62.4677C64.99 62.0307 65.2204 61.6347 65.5517 61.3334L66.7084 60.2884C66.9356 60.0852 67.1174 59.8363 67.2419 59.558C67.3663 59.2797 67.4306 58.9783 67.4306 58.6734C67.4306 58.3686 67.3663 58.0672 67.2419 57.7889C67.1174 57.5106 66.9356 57.2617 66.7084 57.0584L65.5517 56.0134C65.2179 55.7123 64.9855 55.3151 64.8864 54.8766C64.7874 54.438 64.8267 53.9796 64.9987 53.5642C65.1708 53.1488 65.4673 52.7969 65.8474 52.5568C66.2275 52.3168 66.6727 52.2003 67.1217 52.2234L68.6784 52.3034C68.9825 52.3187 69.2864 52.2701 69.5706 52.1607C69.8547 52.0513 70.1128 51.8835 70.3281 51.6682C70.5434 51.4529 70.7112 51.1948 70.8206 50.9106C70.93 50.6265 70.9787 50.3226 70.9634 50.0184L70.8834 48.4568C70.8619 48.0092 70.9791 47.566 71.2189 47.1875C71.4587 46.8091 71.8094 46.5138 72.2232 46.3421C72.6371 46.1704 73.0938 46.1305 73.5311 46.228C73.9684 46.3255 74.365 46.5555 74.6667 46.8868L75.7184 48.0434Z" stroke="black" stroke-linecap="round" stroke-linejoin="round"/>
<path d="M77.3333 64.5016C80.555 64.5016 83.1667 61.89 83.1667 58.6683C83.1667 55.4466 80.555 52.835 77.3333 52.835C74.1117 52.835 71.5 55.4466 71.5 58.6683C71.5 61.89 74.1117 64.5016 77.3333 64.5016Z" stroke="black" stroke-linecap="round" stroke-linejoin="round"/>
<path d="M62.54 112.144C61.6547 112.144 60.8547 112.032 60.14 111.808C59.4253 111.573 58.8067 111.237 58.284 110.8L58.748 109.744C59.292 110.16 59.8627 110.469 60.46 110.672C61.0573 110.875 61.7507 110.976 62.54 110.976C63.5 110.976 64.2093 110.8 64.668 110.448C65.1373 110.085 65.372 109.611 65.372 109.024C65.372 108.555 65.2013 108.181 64.86 107.904C64.5293 107.627 63.9693 107.408 63.18 107.248L61.516 106.912C60.5133 106.699 59.7613 106.352 59.26 105.872C58.7693 105.381 58.524 104.731 58.524 103.92C58.524 103.248 58.6947 102.661 59.036 102.16C59.388 101.659 59.8733 101.269 60.492 100.992C61.1107 100.715 61.8253 100.576 62.636 100.576C63.3933 100.576 64.0973 100.699 64.748 100.944C65.3987 101.179 65.948 101.52 66.396 101.968L65.932 102.992C65.452 102.555 64.9453 102.24 64.412 102.048C63.8787 101.845 63.2813 101.744 62.62 101.744C61.7773 101.744 61.1053 101.941 60.604 102.336C60.1027 102.72 59.852 103.232 59.852 103.872C59.852 104.384 60.0067 104.789 60.316 105.088C60.636 105.387 61.1533 105.605 61.868 105.744L63.532 106.096C64.6093 106.32 65.404 106.661 65.916 107.12C66.4387 107.568 66.7 108.181 66.7 108.96C66.7 109.589 66.5293 110.144 66.188 110.624C65.8573 111.104 65.3773 111.477 64.748 111.744C64.1293 112.011 63.3933 112.144 62.54 112.144ZM72.0638 112.144C70.8371 112.144 69.8664 111.787 69.1518 111.072C68.4371 110.347 68.0798 109.365 68.0798 108.128C68.0798 107.328 68.2398 106.624 68.5598 106.016C68.8798 105.397 69.3171 104.923 69.8718 104.592C70.4371 104.251 71.0878 104.08 71.8238 104.08C72.8798 104.08 73.7064 104.421 74.3038 105.104C74.9011 105.776 75.1998 106.704 75.1998 107.888V108.384H69.3438C69.3864 109.269 69.6424 109.947 70.1118 110.416C70.5811 110.875 71.2318 111.104 72.0638 111.104C72.5331 111.104 72.9811 111.035 73.4078 110.896C73.8344 110.747 74.2398 110.507 74.6238 110.176L75.0718 111.088C74.7198 111.419 74.2718 111.68 73.7278 111.872C73.1838 112.053 72.6291 112.144 72.0638 112.144ZM71.8558 105.04C71.1198 105.04 70.5384 105.269 70.1118 105.728C69.6851 106.187 69.4344 106.789 69.3598 107.536H74.0798C74.0478 106.747 73.8398 106.133 73.4558 105.696C73.0824 105.259 72.5491 105.04 71.8558 105.04ZM77.0754 112V104.224H78.3394V105.616C78.7554 104.677 79.6087 104.16 80.8994 104.064L81.3634 104.016L81.4594 105.136L80.6434 105.232C79.9074 105.296 79.3474 105.531 78.9634 105.936C78.5794 106.331 78.3874 106.875 78.3874 107.568V112H77.0754ZM85.5821 112L82.2381 104.224H83.6461L86.2221 110.528L88.8301 104.224H90.1581L86.7981 112H85.5821ZM91.3685 102.288V100.832H92.9685V102.288H91.3685ZM91.5285 112V104.224H92.8245V112H91.5285ZM98.5433 112.144C97.7646 112.144 97.0926 111.979 96.5273 111.648C95.9619 111.307 95.5246 110.832 95.2153 110.224C94.9166 109.605 94.7673 108.885 94.7673 108.064C94.7673 106.827 95.1033 105.856 95.7753 105.152C96.4473 104.437 97.3699 104.08 98.5433 104.08C99.0233 104.08 99.4979 104.165 99.9673 104.336C100.437 104.507 100.826 104.747 101.135 105.056L100.687 106C100.378 105.701 100.037 105.483 99.6633 105.344C99.3006 105.205 98.9539 105.136 98.6233 105.136C97.8126 105.136 97.1886 105.392 96.7513 105.904C96.3139 106.405 96.0953 107.131 96.0953 108.08C96.0953 109.008 96.3139 109.744 96.7513 110.288C97.1886 110.821 97.8126 111.088 98.6233 111.088C98.9539 111.088 99.3006 111.019 99.6633 110.88C100.037 110.741 100.378 110.517 100.687 110.208L101.135 111.152C100.826 111.461 100.431 111.707 99.9513 111.888C99.4819 112.059 99.0126 112.144 98.5433 112.144ZM106.001 112.144C104.775 112.144 103.804 111.787 103.089 111.072C102.375 110.347 102.017 109.365 102.017 108.128C102.017 107.328 102.177 106.624 102.497 106.016C102.817 105.397 103.255 104.923 103.809 104.592C104.375 104.251 105.025 104.08 105.761 104.08C106.817 104.08 107.644 104.421 108.241 105.104C108.839 105.776 109.137 106.704 109.137 107.888V108.384H103.281C103.324 109.269 103.58 109.947 104.049 110.416C104.519 110.875 105.169 111.104 106.001 111.104C106.471 111.104 106.919 111.035 107.345 110.896C107.772 110.747 108.177 110.507 108.561 110.176L109.009 111.088C108.657 111.419 108.209 111.68 107.665 111.872C107.121 112.053 106.567 112.144 106.001 112.144ZM105.793 105.04C105.057 105.04 104.476 105.269 104.049 105.728C103.623 106.187 103.372 106.789 103.297 107.536H108.017C107.985 106.747 107.777 106.133 107.393 105.696C107.02 105.259 106.487 105.04 105.793 105.04Z" fill="#1D2733"/>
</svg>
