<svg width="168" height="142" viewBox="0 0 168 142" fill="none" xmlns="http://www.w3.org/2000/svg">
<rect width="168" height="142" rx="8" fill="white"/>
<rect x="56" y="24" width="56" height="56" rx="28" fill="white"/>
<path d="M84 57.8334C85.3807 57.8334 86.5 56.7141 86.5 55.3334C86.5 53.9527 85.3807 52.8334 84 52.8334C82.6193 52.8334 81.5 53.9527 81.5 55.3334C81.5 56.7141 82.6193 57.8334 84 57.8334Z" fill="#B3CDFF" stroke="black" stroke-linecap="round" stroke-linejoin="round"/>
<path d="M85.7671 53.5651L94.0188 45.3168" stroke="black" stroke-linecap="round" stroke-linejoin="round"/>
<path d="M68.1665 56.1666H71.4998" stroke="black" stroke-linecap="round" stroke-linejoin="round"/>
<path d="M99.8333 56.1666H96.5" stroke="black" stroke-linecap="round" stroke-linejoin="round"/>
<path d="M98.6272 49.2751L95.5488 50.5501" stroke="black" stroke-linecap="round" stroke-linejoin="round"/>
<path d="M90.0577 40.7047L88.7827 43.7847" stroke="black" stroke-linecap="round" stroke-linejoin="round"/>
<path d="M84 39.5V42.8333" stroke="black" stroke-linecap="round" stroke-linejoin="round"/>
<path d="M77.9419 40.7047L79.2169 43.7847" stroke="black" stroke-linecap="round" stroke-linejoin="round"/>
<path d="M72.8052 44.1368L75.1585 46.4952" stroke="black" stroke-linecap="round" stroke-linejoin="round"/>
<path d="M69.3735 49.2751L72.4502 50.5501" stroke="black" stroke-linecap="round" stroke-linejoin="round"/>
<path d="M84.0002 36.1666C78.9168 36.1666 74.0417 38.186 70.4473 41.7804C66.8528 45.3749 64.8335 50.25 64.8335 55.3333V61.1666C64.8335 61.6087 65.0091 62.0326 65.3217 62.3451C65.6342 62.6577 66.0581 62.8333 66.5002 62.8333H101.5C101.942 62.8333 102.366 62.6577 102.679 62.3451C102.991 62.0326 103.167 61.6087 103.167 61.1666V55.3333C103.167 50.25 101.147 45.3749 97.553 41.7804C93.9586 38.186 89.0835 36.1666 84.0002 36.1666V36.1666Z" stroke="black" stroke-linecap="round" stroke-linejoin="round"/>
<path d="M66.04 112.144C65.1547 112.144 64.3547 112.032 63.64 111.808C62.9253 111.573 62.3067 111.237 61.784 110.8L62.248 109.744C62.792 110.16 63.3627 110.469 63.96 110.672C64.5573 110.875 65.2507 110.976 66.04 110.976C67 110.976 67.7093 110.8 68.168 110.448C68.6373 110.085 68.872 109.611 68.872 109.024C68.872 108.555 68.7013 108.181 68.36 107.904C68.0293 107.627 67.4693 107.408 66.68 107.248L65.016 106.912C64.0133 106.699 63.2613 106.352 62.76 105.872C62.2693 105.381 62.024 104.731 62.024 103.92C62.024 103.248 62.1947 102.661 62.536 102.16C62.888 101.659 63.3733 101.269 63.992 100.992C64.6107 100.715 65.3253 100.576 66.136 100.576C66.8933 100.576 67.5973 100.699 68.248 100.944C68.8987 101.179 69.448 101.52 69.896 101.968L69.432 102.992C68.952 102.555 68.4453 102.24 67.912 102.048C67.3787 101.845 66.7813 101.744 66.12 101.744C65.2773 101.744 64.6053 101.941 64.104 102.336C63.6027 102.72 63.352 103.232 63.352 103.872C63.352 104.384 63.5067 104.789 63.816 105.088C64.136 105.387 64.6533 105.605 65.368 105.744L67.032 106.096C68.1093 106.32 68.904 106.661 69.416 107.12C69.9387 107.568 70.2 108.181 70.2 108.96C70.2 109.589 70.0293 110.144 69.688 110.624C69.3573 111.104 68.8773 111.477 68.248 111.744C67.6293 112.011 66.8933 112.144 66.04 112.144ZM72.0598 114.88V104.224H73.3238V105.616C73.5584 105.136 73.9051 104.763 74.3638 104.496C74.8331 104.219 75.3771 104.08 75.9958 104.08C76.6891 104.08 77.2918 104.245 77.8038 104.576C78.3264 104.896 78.7264 105.36 79.0038 105.968C79.2918 106.565 79.4358 107.28 79.4358 108.112C79.4358 108.933 79.2918 109.648 79.0038 110.256C78.7264 110.853 78.3264 111.317 77.8038 111.648C77.2918 111.979 76.6891 112.144 75.9958 112.144C75.3984 112.144 74.8651 112.011 74.3958 111.744C73.9264 111.477 73.5798 111.109 73.3558 110.64V114.88H72.0598ZM75.7238 111.104C76.4491 111.104 77.0304 110.848 77.4678 110.336C77.9051 109.813 78.1238 109.072 78.1238 108.112C78.1238 107.141 77.9051 106.4 77.4678 105.888C77.0304 105.376 76.4491 105.12 75.7238 105.12C74.9984 105.12 74.4171 105.376 73.9798 105.888C73.5424 106.4 73.3238 107.141 73.3238 108.112C73.3238 109.072 73.5424 109.813 73.9798 110.336C74.4171 110.848 74.9984 111.104 75.7238 111.104ZM84.8919 112.144C83.6652 112.144 82.6945 111.787 81.9799 111.072C81.2652 110.347 80.9079 109.365 80.9079 108.128C80.9079 107.328 81.0679 106.624 81.3879 106.016C81.7079 105.397 82.1452 104.923 82.6999 104.592C83.2652 104.251 83.9159 104.08 84.6519 104.08C85.7079 104.08 86.5345 104.421 87.1319 105.104C87.7292 105.776 88.0279 106.704 88.0279 107.888V108.384H82.1719C82.2145 109.269 82.4705 109.947 82.9399 110.416C83.4092 110.875 84.0599 111.104 84.8919 111.104C85.3612 111.104 85.8092 111.035 86.2359 110.896C86.6625 110.747 87.0679 110.507 87.4519 110.176L87.8999 111.088C87.5479 111.419 87.0999 111.68 86.5559 111.872C86.0119 112.053 85.4572 112.144 84.8919 112.144ZM84.6839 105.04C83.9479 105.04 83.3665 105.269 82.9399 105.728C82.5132 106.187 82.2625 106.789 82.1879 107.536H86.9079C86.8759 106.747 86.6679 106.133 86.2839 105.696C85.9105 105.259 85.3772 105.04 84.6839 105.04ZM93.4075 112.144C92.1808 112.144 91.2102 111.787 90.4955 111.072C89.7808 110.347 89.4235 109.365 89.4235 108.128C89.4235 107.328 89.5835 106.624 89.9035 106.016C90.2235 105.397 90.6608 104.923 91.2155 104.592C91.7808 104.251 92.4315 104.08 93.1675 104.08C94.2235 104.08 95.0502 104.421 95.6475 105.104C96.2448 105.776 96.5435 106.704 96.5435 107.888V108.384H90.6875C90.7302 109.269 90.9862 109.947 91.4555 110.416C91.9248 110.875 92.5755 111.104 93.4075 111.104C93.8768 111.104 94.3248 111.035 94.7515 110.896C95.1782 110.747 95.5835 110.507 95.9675 110.176L96.4155 111.088C96.0635 111.419 95.6155 111.68 95.0715 111.872C94.5275 112.053 93.9728 112.144 93.4075 112.144ZM93.1995 105.04C92.4635 105.04 91.8822 105.269 91.4555 105.728C91.0288 106.187 90.7782 106.789 90.7035 107.536H95.4235C95.3915 106.747 95.1835 106.133 94.7995 105.696C94.4262 105.259 93.8928 105.04 93.1995 105.04ZM101.379 112.144C100.686 112.144 100.078 111.979 99.5551 111.648C99.0431 111.317 98.6431 110.853 98.3551 110.256C98.0778 109.648 97.9391 108.933 97.9391 108.112C97.9391 107.28 98.0778 106.565 98.3551 105.968C98.6431 105.36 99.0431 104.896 99.5551 104.576C100.078 104.245 100.686 104.08 101.379 104.08C101.987 104.08 102.52 104.213 102.979 104.48C103.448 104.747 103.795 105.115 104.019 105.584V100.72H105.315V112H104.051V110.576C103.827 111.067 103.48 111.451 103.011 111.728C102.542 112.005 101.998 112.144 101.379 112.144ZM101.651 111.104C102.376 111.104 102.958 110.848 103.395 110.336C103.832 109.813 104.051 109.072 104.051 108.112C104.051 107.141 103.832 106.4 103.395 105.888C102.958 105.376 102.376 105.12 101.651 105.12C100.915 105.12 100.328 105.376 99.8911 105.888C99.4645 106.4 99.2511 107.141 99.2511 108.112C99.2511 109.072 99.4645 109.813 99.8911 110.336C100.328 110.848 100.915 111.104 101.651 111.104Z" fill="#1D2733"/>
</svg>
