<svg width="1440" height="1926" viewBox="0 0 1440 1926" fill="none" xmlns="http://www.w3.org/2000/svg">
<g opacity="0.6">
<path d="M-47.2772 1501.39C-97.4946 1598.79 -57.3206 1676.05 -57.3206 1676.05C-57.3206 1676.05 29.7228 1665.97 79.9402 1568.56C130.158 1471.16 126.81 1326.73 126.81 1326.73C126.81 1326.73 2.94022 1407.34 -47.2772 1501.39Z" fill="#F0F5FF"/>
<path d="M100.042 1746.59C-7.0885 1746.59 -57.3059 1676.06 -57.3059 1676.06C-57.3059 1676.06 -7.0885 1605.52 100.042 1605.52C207.172 1605.52 334.39 1676.06 334.39 1676.06C334.39 1676.06 207.172 1746.59 100.042 1746.59Z" fill="#F0F5FF"/>
<path d="M166.912 1383.86C140.13 1477.91 190.347 1535.01 190.347 1535.01C190.347 1535.01 264 1511.5 290.782 1417.45C317.565 1323.4 287.434 1199.13 287.434 1199.13C287.434 1199.13 193.695 1293.17 166.912 1383.86Z" fill="#F0F5FF"/>
<path d="M337.654 1571.96C243.914 1592.11 187.001 1538.37 187.001 1538.37C187.001 1538.37 217.132 1467.83 310.871 1447.68C404.61 1427.53 528.48 1467.83 528.48 1467.83C528.48 1467.83 431.393 1551.8 337.654 1571.96Z" fill="#F0F5FF"/>
<path d="M317.599 1219.27C314.251 1303.24 367.817 1343.54 367.817 1343.54C367.817 1343.54 424.73 1306.6 428.077 1222.63C431.425 1138.66 381.208 1037.89 381.208 1037.89C381.208 1037.89 320.947 1135.3 317.599 1219.27Z" fill="#F0F5FF"/>
<path d="M501.776 1340.22C424.776 1377.17 367.863 1343.58 367.863 1343.58C367.863 1343.58 377.906 1276.4 454.906 1239.45C531.906 1202.51 642.385 1209.23 642.385 1209.23C642.385 1209.23 578.776 1303.27 501.776 1340.22Z" fill="#F0F5FF"/>
<path d="M391.221 1011C418.003 1084.9 478.264 1101.69 478.264 1101.69C478.264 1101.69 515.09 1051.31 488.308 977.415C461.525 903.522 381.177 832.987 381.177 832.987C381.177 832.987 364.438 937.11 391.221 1011Z" fill="#F0F5FF"/>
<path d="M595.456 1051.29C541.89 1111.75 481.629 1101.67 481.629 1101.67C481.629 1101.67 468.238 1041.21 518.456 980.756C572.021 920.298 672.456 886.71 672.456 886.71C672.456 886.71 645.673 994.191 595.456 1051.29Z" fill="#F0F5FF"/>
<path d="M404.683 792.691C448.205 859.867 511.814 859.867 511.814 859.867C511.814 859.867 535.249 802.768 491.727 735.592C448.205 668.416 354.466 621.393 354.466 621.393C354.466 621.393 361.162 728.874 404.683 792.691Z" fill="#F0F5FF"/>
<path d="M612.264 785.956C575.438 856.49 511.83 863.208 511.83 863.208C511.83 863.208 481.699 806.108 521.873 738.932C558.699 668.398 649.09 614.657 649.09 614.657C649.09 614.657 652.438 715.421 612.264 785.956Z" fill="#F0F5FF"/>
<path d="M361.122 594.548C418.036 641.571 474.949 624.777 474.949 624.777C474.949 624.777 478.296 567.677 421.383 520.654C364.47 473.631 267.383 456.837 267.383 456.837C267.383 456.837 304.209 547.525 361.122 594.548Z" fill="#F0F5FF"/>
<path d="M541.943 527.363C528.551 597.898 474.986 621.409 474.986 621.409C474.986 621.409 434.812 581.104 448.203 507.21C461.595 436.676 525.203 359.423 525.203 359.423C525.203 359.423 555.334 456.828 541.943 527.363Z" fill="#F0F5FF"/>
<path d="M73.2154 184.749C120.085 184.749 143.52 154.52 143.52 154.52C143.52 154.52 123.433 120.932 76.5632 120.932C29.6937 120.932 -27.2192 147.802 -27.2192 147.802C-27.2192 147.802 26.3459 181.39 73.2154 184.749Z" fill="#F0F5FF"/>
<path d="M140.132 80.6111C160.219 120.917 143.48 154.505 143.48 154.505C143.48 154.505 106.654 147.787 86.5669 107.481C63.1322 63.8171 66.48 0 66.48 0C66.48 0 120.045 36.9467 140.132 80.6111Z" fill="#F0F5FF"/>
<path d="M173.689 285.493C233.95 295.569 267.428 261.981 267.428 261.981C267.428 261.981 247.341 218.317 187.08 204.882C126.819 194.805 49.8193 221.676 49.8193 221.676C49.8193 221.676 113.428 275.416 173.689 285.493Z" fill="#F0F5FF"/>
<path d="M280.805 164.612C300.892 221.712 270.761 262.017 270.761 262.017C270.761 262.017 223.892 248.582 207.153 188.124C187.066 131.024 203.805 50.4133 203.805 50.4133C203.805 50.4133 260.718 107.513 280.805 164.612Z" fill="#F0F5FF"/>
<path d="M287.489 426.576C347.75 456.805 394.62 433.293 394.62 433.293C394.62 433.293 387.924 379.553 327.663 349.323C267.402 315.735 177.011 319.094 177.011 319.094C177.011 319.094 227.229 396.347 287.489 426.576Z" fill="#F0F5FF"/>
<path d="M438.13 332.504C438.13 399.68 394.608 433.268 394.608 433.268C394.608 433.268 351.086 403.039 351.086 335.863C351.086 268.687 394.608 188.076 394.608 188.076C394.608 188.076 438.13 265.328 438.13 332.504Z" fill="#F0F5FF"/>
<path d="M-20.5572 43.6686C22.9645 60.4626 36.3558 94.0506 36.3558 94.0506C36.3558 94.0506 2.87761 117.562 -40.6441 100.768C-84.1658 83.9742 -127.688 36.9511 -127.688 36.9511C-127.688 36.9511 -67.4268 26.8747 -20.5572 43.6686Z" fill="#F0F5FF"/>
</g>
<g opacity="0.6">
<path d="M1441.8 1750.96C1535.54 1771.11 1592.45 1717.37 1592.45 1717.37C1592.45 1717.37 1562.32 1646.83 1468.58 1626.68C1374.84 1606.53 1250.98 1646.83 1250.98 1646.83C1250.98 1646.83 1348.06 1730.8 1441.8 1750.96Z" fill="#F0F5FF"/>
<path d="M1461.86 1398.27C1465.2 1482.24 1411.64 1522.54 1411.64 1522.54C1411.64 1522.54 1354.73 1485.6 1351.38 1401.63C1348.03 1317.66 1398.25 1216.89 1398.25 1216.89C1398.25 1216.89 1458.51 1314.3 1461.86 1398.27Z" fill="#F0F5FF"/>
<path d="M1277.68 1519.22C1354.68 1556.17 1411.59 1522.58 1411.59 1522.58C1411.59 1522.58 1401.55 1455.4 1324.55 1418.46C1247.55 1381.51 1137.07 1388.23 1137.07 1388.23C1137.07 1388.23 1200.68 1482.27 1277.68 1519.22Z" fill="#F0F5FF"/>
<path d="M1388.23 1190C1361.45 1263.9 1301.19 1280.69 1301.19 1280.69C1301.19 1280.69 1264.36 1230.31 1291.15 1156.42C1317.93 1082.52 1398.28 1011.99 1398.28 1011.99C1398.28 1011.99 1415.02 1116.11 1388.23 1190Z" fill="#F0F5FF"/>
<path d="M1184 1230.29C1237.57 1290.75 1297.83 1280.67 1297.83 1280.67C1297.83 1280.67 1311.22 1220.21 1261 1159.76C1207.43 1099.3 1107 1065.71 1107 1065.71C1107 1065.71 1133.78 1173.19 1184 1230.29Z" fill="#F0F5FF"/>
<path d="M1374.77 971.691C1331.25 1038.87 1267.64 1038.87 1267.64 1038.87C1267.64 1038.87 1244.21 981.767 1287.73 914.591C1331.25 847.415 1424.99 800.392 1424.99 800.392C1424.99 800.392 1418.29 907.874 1374.77 971.691Z" fill="#F0F5FF"/>
<path d="M1167.19 964.955C1204.02 1035.49 1267.63 1042.21 1267.63 1042.21C1267.63 1042.21 1297.76 985.108 1257.58 917.932C1220.76 847.397 1130.36 793.657 1130.36 793.657C1130.36 793.657 1127.02 894.421 1167.19 964.955Z" fill="#F0F5FF"/>
<path d="M1418.33 773.547C1361.42 820.571 1304.51 803.777 1304.51 803.777C1304.51 803.777 1301.16 746.677 1358.07 699.654C1414.98 652.631 1512.07 635.837 1512.07 635.837C1512.07 635.837 1475.25 726.524 1418.33 773.547Z" fill="#F0F5FF"/>
<path d="M1237.51 706.363C1250.9 776.897 1304.47 800.409 1304.47 800.409C1304.47 800.409 1344.64 760.103 1331.25 686.21C1317.86 615.675 1254.25 538.423 1254.25 538.423C1254.25 538.423 1224.12 635.828 1237.51 706.363Z" fill="#F0F5FF"/>
<path d="M1491.97 605.575C1431.7 635.804 1384.84 612.293 1384.84 612.293C1384.84 612.293 1391.53 558.552 1451.79 528.323C1512.05 494.735 1602.44 498.094 1602.44 498.094C1602.44 498.094 1552.23 575.346 1491.97 605.575Z" fill="#F0F5FF"/>
<path d="M1341.33 511.504C1341.33 578.68 1384.85 612.268 1384.85 612.268C1384.85 612.268 1428.37 582.039 1428.37 514.863C1428.37 447.687 1384.85 367.076 1384.85 367.076C1384.85 367.076 1341.33 444.328 1341.33 511.504Z" fill="#F0F5FF"/>
</g>
</svg>
