<svg width="52" height="52" viewBox="0 0 52 52" fill="none" xmlns="http://www.w3.org/2000/svg">
<g clip-path="url(#clip0)" filter="url(#filter0_d)">
<path d="M6 23C6 26.9556 7.17298 30.8224 9.37061 34.1114C11.5682 37.4004 14.6918 39.9638 18.3463 41.4776C22.0009 42.9913 26.0222 43.3874 29.9018 42.6157C33.7814 41.844 37.3451 39.9392 40.1421 37.1421C42.9392 34.3451 44.844 30.7814 45.6157 26.9018C46.3874 23.0222 45.9913 19.0009 44.4776 15.3463C42.9638 11.6918 40.4004 8.56824 37.1114 6.37061C33.8224 4.17298 29.9556 3 26 3C20.6976 3.00618 15.6141 5.1153 11.8647 8.86468C8.1153 12.6141 6.00618 17.6976 6 23H6ZM28.845 14.3183L36.345 21.8183C36.6574 22.1309 36.833 22.5547 36.833 22.9967C36.833 23.4386 36.6574 23.8625 36.345 24.175L28.845 31.675C28.5307 31.9786 28.1097 32.1466 27.6727 32.1428C27.2357 32.139 26.8176 31.9637 26.5086 31.6547C26.1996 31.3457 26.0243 30.9277 26.0205 30.4907C26.0167 30.0537 26.1847 29.6327 26.4883 29.3183L30.4317 25.3733C30.4884 25.3148 30.5267 25.2409 30.5419 25.1609C30.5571 25.0808 30.5484 24.998 30.517 24.9228C30.4856 24.8476 30.4328 24.7832 30.3652 24.7377C30.2976 24.6922 30.2182 24.6675 30.1367 24.6667H16C15.558 24.6667 15.134 24.4911 14.8215 24.1785C14.5089 23.8659 14.3333 23.442 14.3333 23C14.3333 22.558 14.5089 22.134 14.8215 21.8215C15.134 21.5089 15.558 21.3333 16 21.3333H30.1367C30.2192 21.3335 30.2999 21.3091 30.3685 21.2633C30.4372 21.2176 30.4907 21.1524 30.5223 21.0762C30.5539 21 30.5622 20.9161 30.546 20.8352C30.5299 20.7542 30.4901 20.6799 30.4317 20.6217L26.4883 16.675C26.1847 16.3607 26.0167 15.9397 26.0205 15.5027C26.0243 15.0657 26.1996 14.6476 26.5086 14.3386C26.8176 14.0296 27.2357 13.8543 27.6727 13.8505C28.1097 13.8467 28.5307 14.0147 28.845 14.3183Z" fill="#0050C8"/>
</g>
<defs>
<filter id="filter0_d" x="0" y="0" width="52" height="52" filterUnits="userSpaceOnUse" color-interpolation-filters="sRGB">
<feFlood flood-opacity="0" result="BackgroundImageFix"/>
<feColorMatrix in="SourceAlpha" type="matrix" values="0 0 0 0 0 0 0 0 0 0 0 0 0 0 0 0 0 0 127 0"/>
<feOffset dy="3"/>
<feGaussianBlur stdDeviation="3"/>
<feColorMatrix type="matrix" values="0 0 0 0 0 0 0 0 0 0 0 0 0 0 0 0 0 0 0.1 0"/>
<feBlend mode="normal" in2="BackgroundImageFix" result="effect1_dropShadow"/>
<feBlend mode="normal" in="SourceGraphic" in2="effect1_dropShadow" result="shape"/>
</filter>
<clipPath id="clip0">
<rect width="40" height="40" fill="white" transform="translate(6 3)"/>
</clipPath>
</defs>
</svg>
