<svg width="52" height="52" viewBox="0 0 52 52" fill="none" xmlns="http://www.w3.org/2000/svg">
<g clip-path="url(#clip0)" filter="url(#filter0_d)">
<path d="M46 23C46 26.9556 44.827 30.8224 42.6294 34.1114C40.4318 37.4004 37.3082 39.9638 33.6537 41.4776C29.9991 42.9913 25.9778 43.3874 22.0982 42.6157C18.2186 41.844 14.6549 39.9392 11.8579 37.1421C9.06082 34.3451 7.156 30.7814 6.3843 26.9018C5.61259 23.0222 6.00866 19.0009 7.52242 15.3463C9.03617 11.6918 11.5996 8.56824 14.8886 6.37061C18.1776 4.17298 22.0444 3 26 3C31.3024 3.00618 36.3859 5.1153 40.1353 8.86468C43.8847 12.6141 45.9938 17.6976 46 23V23ZM23.155 14.3183L15.655 21.8183C15.3426 22.1309 15.167 22.5547 15.167 22.9967C15.167 23.4386 15.3426 23.8625 15.655 24.175L23.155 31.675C23.4693 31.9786 23.8903 32.1466 24.3273 32.1428C24.7643 32.139 25.1824 31.9637 25.4914 31.6547C25.8004 31.3457 25.9757 30.9277 25.9795 30.4907C25.9833 30.0537 25.8153 29.6327 25.5117 29.3183L21.5683 25.3733C21.5116 25.3148 21.4733 25.2409 21.4581 25.1609C21.4429 25.0808 21.4516 24.998 21.483 24.9228C21.5144 24.8476 21.5672 24.7832 21.6348 24.7377C21.7024 24.6922 21.7818 24.6675 21.8633 24.6667H36C36.442 24.6667 36.866 24.4911 37.1785 24.1785C37.4911 23.8659 37.6667 23.442 37.6667 23C37.6667 22.558 37.4911 22.134 37.1785 21.8215C36.866 21.5089 36.442 21.3333 36 21.3333H21.8633C21.7808 21.3335 21.7001 21.3091 21.6315 21.2633C21.5628 21.2176 21.5093 21.1524 21.4777 21.0762C21.4461 21 21.4378 20.9161 21.454 20.8352C21.4701 20.7542 21.5099 20.6799 21.5683 20.6217L25.5117 16.675C25.8153 16.3607 25.9833 15.9397 25.9795 15.5027C25.9757 15.0657 25.8004 14.6476 25.4914 14.3386C25.1824 14.0296 24.7643 13.8543 24.3273 13.8505C23.8903 13.8467 23.4693 14.0147 23.155 14.3183Z" fill="#0050C8"/>
</g>
<defs>
<filter id="filter0_d" x="0" y="0" width="52" height="52" filterUnits="userSpaceOnUse" color-interpolation-filters="sRGB">
<feFlood flood-opacity="0" result="BackgroundImageFix"/>
<feColorMatrix in="SourceAlpha" type="matrix" values="0 0 0 0 0 0 0 0 0 0 0 0 0 0 0 0 0 0 127 0"/>
<feOffset dy="3"/>
<feGaussianBlur stdDeviation="3"/>
<feColorMatrix type="matrix" values="0 0 0 0 0 0 0 0 0 0 0 0 0 0 0 0 0 0 0.1 0"/>
<feBlend mode="normal" in2="BackgroundImageFix" result="effect1_dropShadow"/>
<feBlend mode="normal" in="SourceGraphic" in2="effect1_dropShadow" result="shape"/>
</filter>
<clipPath id="clip0">
<rect width="40" height="40" fill="white" transform="matrix(-1 0 0 1 46 3)"/>
</clipPath>
</defs>
</svg>
