<svg width="16" height="16" viewBox="0 0 16 16" fill="none" xmlns="http://www.w3.org/2000/svg">
<g clip-path="url(#clip0)">
<path d="M8 0.473358C9.32608 0.473358 10.5979 1.00014 11.5355 1.93782C12.4732 2.87551 13 4.14728 13 5.47336C13 7.83802 9.33333 13.7274 8.28067 15.3734C8.25051 15.4204 8.209 15.4592 8.15995 15.486C8.11091 15.5128 8.0559 15.5269 8 15.5269C7.9441 15.5269 7.88909 15.5128 7.84005 15.486C7.791 15.4592 7.74949 15.4204 7.71933 15.3734C6.66667 13.728 3 7.83802 3 5.47336C3 4.14728 3.52678 2.87551 4.46447 1.93782C5.40215 1.00014 6.67392 0.473358 8 0.473358V0.473358Z" stroke="#565D66" stroke-linecap="round" stroke-linejoin="round"/>
<path d="M8 7.47336C9.10457 7.47336 10 6.57793 10 5.47336C10 4.36879 9.10457 3.47336 8 3.47336C6.89543 3.47336 6 4.36879 6 5.47336C6 6.57793 6.89543 7.47336 8 7.47336Z" stroke="#565D66" stroke-linecap="round" stroke-linejoin="round"/>
</g>
<defs>
<clipPath id="clip0">
<rect width="16" height="16" fill="white"/>
</clipPath>
</defs>
</svg>
